<?xml version="1.0" encoding="UTF-8"?>
<svg version="1.1" xmlns="http://www.w3.org/2000/svg" width="64" height="64">
<path d="M0 0 C3.96 0 7.92 0 12 0 C12 0.99 12 1.98 12 3 C14.64 3 17.28 3 20 3 C20 4.32 20 5.64 20 7 C23.96 7 27.92 7 32 7 C32 20.53 32 34.06 32 48 C14.84 48 -2.32 48 -20 48 C-20 34.47 -20 20.94 -20 7 C-16.37 7 -12.74 7 -9 7 C-9 5.68 -9 4.36 -9 3 C-6.03 3 -3.06 3 0 3 C0 2.01 0 1.02 0 0 Z M2 3 C1.92851801 4.35243917 1.91600546 5.70834367 1.9375 7.0625 C1.958125 8.361875 1.97875 9.66125 2 11 C4.64 11 7.28 11 10 11 C10.020625 9.700625 10.04125 8.40125 10.0625 7.0625 C10.07410156 6.33160156 10.08570313 5.60070312 10.09765625 4.84765625 C10.20561184 2.98267859 10.20561184 2.98267859 9 2 C5.19759625 1.52263947 5.19759625 1.52263947 2 3 Z M-7 5 C-7 5.66 -7 6.32 -7 7 C-4.69 7 -2.38 7 0 7 C0 6.34 0 5.68 0 5 C-2.31 5 -4.62 5 -7 5 Z M12 5 C12 5.66 12 6.32 12 7 C13.98 7 15.96 7 18 7 C18 6.34 18 5.68 18 5 C16.02 5 14.04 5 12 5 Z M-18 10 C-18.1002093 12.27947792 -18.13081303 14.56207135 -18.1328125 16.84375 C-18.13376923 17.52804077 -18.13472595 18.21233154 -18.13571167 18.9173584 C-18.1363933 20.36661877 -18.13454023 21.81588218 -18.13037109 23.26513672 C-18.12502252 25.49062928 -18.1303166 27.71592001 -18.13671875 29.94140625 C-18.13605797 31.34635461 -18.1347768 32.75130285 -18.1328125 34.15625 C-18.13168457 35.44337891 -18.13055664 36.73050781 -18.12939453 38.05664062 C-18.33686143 40.88826157 -18.33686143 40.88826157 -17 42 C-15.56259647 42.09813987 -14.12043673 42.1279828 -12.6796875 42.12939453 C-11.76203613 42.13254669 -10.84438477 42.13569885 -9.89892578 42.13894653 C-8.90103027 42.1369223 -7.90313477 42.13489807 -6.875 42.1328125 C-5.34915283 42.13424759 -5.34915283 42.13424759 -3.79248047 42.13571167 C-1.63704364 42.13639361 0.51839522 42.13453835 2.67382812 42.13037109 C5.98572371 42.12502305 9.29748367 42.13031563 12.609375 42.13671875 C14.69791697 42.13605797 16.78645885 42.13477681 18.875 42.1328125 C20.37184326 42.13584885 20.37184326 42.13584885 21.89892578 42.13894653 C22.81657715 42.13579437 23.73422852 42.13264221 24.6796875 42.12939453 C25.49163574 42.12859894 26.30358398 42.12780334 27.14013672 42.12698364 C29.01545753 42.20364189 29.01545753 42.20364189 30 41 C30.1002093 38.72052208 30.13081303 36.43792865 30.1328125 34.15625 C30.13376923 33.47195923 30.13472595 32.78766846 30.13571167 32.0826416 C30.1363933 30.63338123 30.13454023 29.18411782 30.13037109 27.73486328 C30.12502252 25.50937072 30.1303166 23.28407999 30.13671875 21.05859375 C30.13605797 19.65364539 30.1347768 18.24869715 30.1328125 16.84375 C30.13112061 14.91305664 30.13112061 14.91305664 30.12939453 12.94335938 C30.33686143 10.11173843 30.33686143 10.11173843 29 9 C26.13732433 8.92674832 23.299281 8.90761795 20.4375 8.9375 C19.63119141 8.94201172 18.82488281 8.94652344 17.99414062 8.95117188 C15.99606244 8.96299482 13.99802217 8.98093086 12 9 C12 10.32 12 11.64 12 13 C8.04 13 4.08 13 0 13 C0 11.68 0 10.36 0 9 C-2.81256281 8.97315688 -5.62487241 8.95323812 -8.4375 8.9375 C-9.23994141 8.92912109 -10.04238281 8.92074219 -10.86914062 8.91210938 C-14.74436907 8.5030304 -14.74436907 8.5030304 -18 10 Z " fill="#8055FF" transform="translate(26,8)"/>
<path d="M0 0 C0.70125 0.00515625 1.4025 0.0103125 2.125 0.015625 C2.82625 0.01046875 3.5275 0.0053125 4.25 0 C6.125 0.265625 6.125 0.265625 8.125 2.265625 C8.3203125 4.4296875 8.3203125 4.4296875 8.25 6.890625 C8.23195313 7.70789062 8.21390625 8.52515625 8.1953125 9.3671875 C8.17210938 9.99367188 8.14890625 10.62015625 8.125 11.265625 C8.785 11.265625 9.445 11.265625 10.125 11.265625 C12.125 14.265625 12.125 14.265625 12.125 21.265625 C5.525 21.265625 -1.075 21.265625 -7.875 21.265625 C-7.875 14.265625 -7.875 14.265625 -5.875 11.265625 C-5.215 11.265625 -4.555 11.265625 -3.875 11.265625 C-3.89820313 10.63914062 -3.92140625 10.01265625 -3.9453125 9.3671875 C-3.96335937 8.54992188 -3.98140625 7.73265625 -4 6.890625 C-4.02320313 6.07851563 -4.04640625 5.26640625 -4.0703125 4.4296875 C-3.80983542 1.54360141 -2.92106703 0.41381783 0 0 Z M0.125 3.265625 C-1.07338209 5.59416963 -1.07338209 5.59416963 -1.875 8.265625 C-0.885 9.750625 -0.885 9.750625 0.125 11.265625 C1.775 10.935625 3.425 10.605625 5.125 10.265625 C5.81659401 8.41837448 5.81659401 8.41837448 6.125 6.265625 C5.465 5.275625 4.805 4.285625 4.125 3.265625 C2.805 3.265625 1.485 3.265625 0.125 3.265625 Z M-2.875 13.265625 C-5.1523501 16.08072493 -5.1523501 16.08072493 -4.875 19.265625 C-0.255 19.265625 4.365 19.265625 9.125 19.265625 C8.795 17.615625 8.465 15.965625 8.125 14.265625 C5.78397141 13.09511071 4.23147047 13.0664004 1.625 13.015625 C0.8309375 12.98984375 0.036875 12.9640625 -0.78125 12.9375 C-1.4721875 13.04578125 -2.163125 13.1540625 -2.875 13.265625 Z " fill="#823EFF" transform="translate(19.875,24.734375)"/>
<path d="M0 0 C4.62 0 9.24 0 14 0 C14 0.66 14 1.32 14 2 C9.38 2 4.76 2 0 2 C0 1.34 0 0.68 0 0 Z " fill="#6A4AFF" transform="translate(38,29)"/>
<path d="M0 0 C4.62 0 9.24 0 14 0 C14 0.66 14 1.32 14 2 C9.38 2 4.76 2 0 2 C0 1.34 0 0.68 0 0 Z " fill="#5C50FF" transform="translate(38,25)"/>
<path d="M0 0 C3.96 0 7.92 0 12 0 C12 0.66 12 1.32 12 2 C8.04 2 4.08 2 0 2 C0 1.34 0 0.68 0 0 Z " fill="#7844FF" transform="translate(38,33)"/>
<path d="M0 0 C3.3 0 6.6 0 10 0 C10 0.66 10 1.32 10 2 C6.7 2 3.4 2 0 2 C0 1.34 0 0.68 0 0 Z " fill="#873EFF" transform="translate(38,37)"/>
<path d="M0 0 C1.32 0 2.64 0 4 0 C4 1.65 4 3.3 4 5 C2.68 5 1.36 5 0 5 C0 3.35 0 1.7 0 0 Z " fill="#A8B9FF" transform="translate(30,12)"/>
<path d="M0 0 C0.66 0 1.32 0 2 0 C2 0.99 2 1.98 2 3 C1.34 3 0.68 3 0 3 C0 2.01 0 1.02 0 0 Z " fill="#9E34FF" transform="translate(50,43)"/>
<path d="M0 0 C0.66 0 1.32 0 2 0 C2 0.99 2 1.98 2 3 C1.34 3 0.68 3 0 3 C0 2.01 0 1.02 0 0 Z " fill="#9E34FF" transform="translate(46,43)"/>
<path d="M0 0 C0.66 0 1.32 0 2 0 C2 0.99 2 1.98 2 3 C1.34 3 0.68 3 0 3 C0 2.01 0 1.02 0 0 Z " fill="#9E34FF" transform="translate(42,43)"/>
<path d="M0 0 C0.66 0 1.32 0 2 0 C2 0.99 2 1.98 2 3 C1.34 3 0.68 3 0 3 C0 2.01 0 1.02 0 0 Z " fill="#9E34FF" transform="translate(38,43)"/>
</svg>
