<?xml version="1.0" encoding="UTF-8"?>
<svg version="1.1" xmlns="http://www.w3.org/2000/svg" width="64" height="64">
<path d="M0 0 C1.98 0 3.96 0 6 0 C6.66 1.32 7.32 2.64 8 4 C12.62 4 17.24 4 22 4 C22 4.66 22 5.32 22 6 C23.32 6 24.64 6 26 6 C26 20.52 26 35.04 26 50 C24.68 50 23.36 50 22 50 C22 50.66 22 51.32 22 52 C9.46 52 -3.08 52 -16 52 C-16 51.34 -16 50.68 -16 50 C-17.32 50 -18.64 50 -20 50 C-20 35.48 -20 20.96 -20 6 C-18.68 6 -17.36 6 -16 6 C-16 5.34 -16 4.68 -16 4 C-11.38 4 -6.76 4 -2 4 C-1.34 2.68 -0.68 1.36 0 0 Z M1 3 C0.67 4.65 0.34 6.3 0 8 C1.98 8 3.96 8 6 8 C5.67 6.35 5.34 4.7 5 3 C3.68 3 2.36 3 1 3 Z M-14 7 C-14.1011692 10.09081465 -14.13968558 13.15882555 -14.1328125 16.25 C-14.13376923 17.17844727 -14.13472595 18.10689453 -14.13571167 19.06347656 C-14.13639355 21.03059965 -14.13453872 22.99772496 -14.13037109 24.96484375 C-14.12502295 27.98703026 -14.13031582 31.00906815 -14.13671875 34.03125 C-14.13605797 35.93750033 -14.13477681 37.84375057 -14.1328125 39.75 C-14.13483673 40.66040039 -14.13686096 41.57080078 -14.13894653 42.50878906 C-14.53891332 46.57663678 -14.53891332 46.57663678 -13 50 C-10.63601532 50.1007812 -8.30188689 50.13973215 -5.9375 50.1328125 C-5.23101318 50.13376923 -4.52452637 50.13472595 -3.79663086 50.13571167 C-2.30029207 50.13639333 -0.80395033 50.13454005 0.69238281 50.13037109 C2.99030157 50.12502257 5.28802486 50.13031651 7.5859375 50.13671875 C9.03645877 50.13605797 10.48697991 50.1347768 11.9375 50.1328125 C12.6291626 50.13483673 13.3208252 50.13686096 14.03344727 50.13894653 C17.29735638 50.40230733 17.29735638 50.40230733 20 49 C20.1011692 45.90918535 20.13968558 42.84117445 20.1328125 39.75 C20.13376923 38.82155273 20.13472595 37.89310547 20.13571167 36.93652344 C20.13639355 34.96940035 20.13453872 33.00227504 20.13037109 31.03515625 C20.12502295 28.01296974 20.13031582 24.99093185 20.13671875 21.96875 C20.13605797 20.06249967 20.13477681 18.15624943 20.1328125 16.25 C20.13483673 15.33959961 20.13686096 14.42919922 20.13894653 13.49121094 C20.53891332 9.42336322 20.53891332 9.42336322 19 6 C17.14712498 5.92773498 15.29166122 5.9161878 13.4375 5.9375 C12.42558594 5.94652344 11.41367187 5.95554687 10.37109375 5.96484375 C9.58863281 5.97644531 8.80617188 5.98804688 8 6 C8 7.32 8 8.64 8 10 C4.7 10 1.4 10 -2 10 C-2 8.68 -2 7.36 -2 6 C-3.81242052 5.97312721 -5.62495233 5.95366285 -7.4375 5.9375 C-8.95150391 5.92009766 -8.95150391 5.92009766 -10.49609375 5.90234375 C-12.94021067 5.71387324 -12.94021067 5.71387324 -14 7 Z M-17 8 C-18.41726236 9.18910251 -18.41726236 9.18910251 -18.11352539 12.60180664 C-18.11336625 14.20459856 -18.10767063 15.8073956 -18.09765625 17.41015625 C-18.0962413 18.25219101 -18.09482635 19.09422577 -18.09336853 19.96177673 C-18.08775263 22.66205335 -18.07519748 25.36224828 -18.0625 28.0625 C-18.05748705 29.88867068 -18.05292379 31.71484266 -18.04882812 33.54101562 C-18.03777804 38.02737542 -18.02050279 42.51367384 -18 47 C-17.34 47.33 -16.68 47.66 -16 48 C-16 34.8 -16 21.6 -16 8 C-16.33 8 -16.66 8 -17 8 Z M22 8 C22 21.2 22 34.4 22 48 C22.99 47.505 22.99 47.505 24 47 C24 34.46 24 21.92 24 9 C23.34 8.67 22.68 8.34 22 8 Z " fill="#7047FF" transform="translate(29,6)"/>
<path d="M0 0 C3 0.25 3 0.25 5 2.25 C5.37890625 4.16015625 5.37890625 4.16015625 5.5625 6.3125 C5.55913448 10.01736617 5.55913448 10.01736617 7 11.25 C7 13.23 7 15.21 7 17.25 C2.38 17.25 -2.24 17.25 -7 17.25 C-7 11.25 -7 11.25 -6 10.25 C-5.7746669 8.2220021 -5.55232815 6.19325126 -5.37890625 4.16015625 C-4.69529286 0.71389908 -3.35871955 0.2798933 0 0 Z M-2 3.25 C-3.01111093 6.29913228 -3.01111093 6.29913228 -2 9.25 C-0.68 9.25 0.64 9.25 2 9.25 C3.01111093 6.20086772 3.01111093 6.20086772 2 3.25 C0.68 3.25 -0.64 3.25 -2 3.25 Z M-4 12.25 C-4 13.24 -4 14.23 -4 15.25 C-1.36 15.25 1.28 15.25 4 15.25 C4 14.26 4 13.27 4 12.25 C1.36 12.25 -1.28 12.25 -4 12.25 Z " fill="#654CFF" transform="translate(26,18.75)"/>
<path d="M0 0 C2.64 0 5.28 0 8 0 C8 3.3 8 6.6 8 10 C5.36 10 2.72 10 0 10 C0 6.7 0 3.4 0 0 Z " fill="#BEB4FF" transform="translate(39,40)"/>
<path d="M0 0 C2.64 0 5.28 0 8 0 C8 1.32 8 2.64 8 4 C5.36 4 2.72 4 0 4 C0 2.68 0 1.36 0 0 Z " fill="#86C0FF" transform="translate(39,40)"/>
<path d="M0 0 C3.3 0 6.6 0 10 0 C10 0.66 10 1.32 10 2 C6.7 2 3.4 2 0 2 C0 1.34 0 0.68 0 0 Z " fill="#5752FF" transform="translate(37,23)"/>
<path d="M0 0 C3.3 0 6.6 0 10 0 C10 0.66 10 1.32 10 2 C6.7 2 3.4 2 0 2 C0 1.34 0 0.68 0 0 Z " fill="#4A58FF" transform="translate(37,19)"/>
<path d="M0 0 C2.97 0 5.94 0 9 0 C9 0.66 9 1.32 9 2 C6.03 2 3.06 2 0 2 C0 1.34 0 0.68 0 0 Z " fill="#A730FF" transform="translate(28,48)"/>
<path d="M0 0 C2.97 0 5.94 0 9 0 C9 0.66 9 1.32 9 2 C6.03 2 3.06 2 0 2 C0 1.34 0 0.68 0 0 Z " fill="#9A35FF" transform="translate(28,44)"/>
<path d="M0 0 C2.97 0 5.94 0 9 0 C9 0.66 9 1.32 9 2 C6.03 2 3.06 2 0 2 C0 1.34 0 0.68 0 0 Z " fill="#8D3BFF" transform="translate(28,40)"/>
<path d="M0 0 C2.64 0 5.28 0 8 0 C8 0.66 8 1.32 8 2 C5.36 2 2.72 2 0 2 C0 1.34 0 0.68 0 0 Z " fill="#634DFF" transform="translate(37,27)"/>
<path d="M0 0 C2.31 0 4.62 0 7 0 C7 0.66 7 1.32 7 2 C4.69 2 2.38 2 0 2 C0 1.34 0 0.68 0 0 Z " fill="#A730FF" transform="translate(19,48)"/>
<path d="M0 0 C2.31 0 4.62 0 7 0 C7 0.66 7 1.32 7 2 C4.69 2 2.38 2 0 2 C0 1.34 0 0.68 0 0 Z " fill="#9A35FF" transform="translate(19,44)"/>
<path d="M0 0 C2.31 0 4.62 0 7 0 C7 0.66 7 1.32 7 2 C4.69 2 2.38 2 0 2 C0 1.34 0 0.68 0 0 Z " fill="#8D3BFF" transform="translate(19,40)"/>
<path d="M0 0 C1.98 0 3.96 0 6 0 C6 0.66 6 1.32 6 2 C4.02 2 2.04 2 0 2 C0 1.34 0 0.68 0 0 Z " fill="#7047FF" transform="translate(37,31)"/>
</svg>
